<?xml version="1.0" encoding="UTF-8" standalone="no"?>
<svg
   width="46"
   height="46"
   viewBox="0 0 46 46"
   fill="none"
   version="1.1"
   id="svg10"
   sodipodi:docname="chat.svg"
   inkscape:version="1.2 (dc2aedaf03, 2022-05-15)"
   xmlns:inkscape="http://www.inkscape.org/namespaces/inkscape"
   xmlns:sodipodi="http://sodipodi.sourceforge.net/DTD/sodipodi-0.dtd"
   xmlns="http://www.w3.org/2000/svg"
   xmlns:svg="http://www.w3.org/2000/svg">
  <defs
     id="defs14" />
  <sodipodi:namedview
     id="namedview12"
     pagecolor="#ffffff"
     bordercolor="#000000"
     borderopacity="0.25"
     inkscape:showpageshadow="2"
     inkscape:pageopacity="0.0"
     inkscape:pagecheckerboard="0"
     inkscape:deskcolor="#d1d1d1"
     showgrid="false"
     inkscape:zoom="11.5"
     inkscape:cx="22.956522"
     inkscape:cy="23.043478"
     inkscape:window-width="1366"
     inkscape:window-height="709"
     inkscape:window-x="0"
     inkscape:window-y="30"
     inkscape:window-maximized="1"
     inkscape:current-layer="svg10" />
  <path
     style="color:#000000;fill:#41b7e9;-inkscape-stroke:none"
     d="M 23,0 C 10.306347,0 0,10.306347 0,23 0,35.693653 10.306347,46 23,46 35.693653,46 46,35.693653 46,23 46,10.306347 35.693653,0 23,0 Z m 0,1.5 C 34.882994,1.5 44.5,11.117006 44.5,23 44.5,34.882994 34.882994,44.5 23,44.5 11.117006,44.5 1.5,34.882994 1.5,23 1.5,11.117006 11.117006,1.5 23,1.5 Z"
     id="circle2" />
  <path
     d="M18.4333 32.7333C18.3402 32.7333 18.2465 32.7124 18.1585 32.6706C17.94 32.5649 17.8 32.3438 17.8 32.1V28.9333H15.9C14.8525 28.9333 14 28.0809 14 27.0333V16.9C14 15.8525 14.8525 15 15.9 15H31.1C32.1475 15 33 15.8525 33 16.9V27.0333C33 28.0809 32.1475 28.9333 31.1 28.9333H23.4056L18.8292 32.5946C18.7145 32.6865 18.5746 32.7333 18.4333 32.7333ZM15.9 16.2667C15.5504 16.2667 15.2667 16.551 15.2667 16.9V27.0333C15.2667 27.3823 15.5504 27.6667 15.9 27.6667H18.4333C18.7836 27.6667 19.0667 27.9498 19.0667 28.3V30.7827L22.7875 27.8054C22.9002 27.7154 23.0389 27.6667 23.1833 27.6667H31.1C31.4496 27.6667 31.7333 27.3823 31.7333 27.0333V16.9C31.7333 16.551 31.4496 16.2667 31.1 16.2667H15.9Z"
     fill="#41B7E9"
     id="path4" />
  <path
     d="M28.5667 21.3331H18.4333C18.0831 21.3331 17.8 21.0493 17.8 20.6997C17.8 20.3501 18.0831 20.0664 18.4333 20.0664H28.5667C28.9169 20.0664 29.2 20.3501 29.2 20.6997C29.2 21.0493 28.9169 21.3331 28.5667 21.3331Z"
     fill="#41B7E9"
     id="path6" />
  <path
     d="M23.5 23.8663H18.4333C18.0831 23.8663 17.8 23.5825 17.8 23.2329C17.8 22.8833 18.0831 22.5996 18.4333 22.5996H23.5C23.8502 22.5996 24.1333 22.8833 24.1333 23.2329C24.1333 23.5825 23.8502 23.8663 23.5 23.8663Z"
     fill="#41B7E9"
     id="path8" />
</svg>
