<?xml version="1.0" encoding="UTF-8" standalone="no"?>
<svg
   width="26"
   height="26"
   viewBox="0 0 26 26"
   fill="none"
   version="1.1"
   id="svg6"
   sodipodi:docname="email.svg"
   inkscape:version="1.2 (dc2aedaf03, 2022-05-15)"
   xmlns:inkscape="http://www.inkscape.org/namespaces/inkscape"
   xmlns:sodipodi="http://sodipodi.sourceforge.net/DTD/sodipodi-0.dtd"
   xmlns="http://www.w3.org/2000/svg"
   xmlns:svg="http://www.w3.org/2000/svg">
  <defs
     id="defs10" />
  <sodipodi:namedview
     id="namedview8"
     pagecolor="#ffffff"
     bordercolor="#000000"
     borderopacity="0.25"
     inkscape:showpageshadow="2"
     inkscape:pageopacity="0.0"
     inkscape:pagecheckerboard="0"
     inkscape:deskcolor="#d1d1d1"
     showgrid="false"
     inkscape:zoom="20.346154"
     inkscape:cx="12.975425"
     inkscape:cy="12.975425"
     inkscape:window-width="1366"
     inkscape:window-height="709"
     inkscape:window-x="0"
     inkscape:window-y="30"
     inkscape:window-maximized="1"
     inkscape:current-layer="svg6" />
  <path
     style="color:#000000;fill:#ffffff;stroke-linecap:round;stroke-linejoin:round;-inkscape-stroke:none"
     d="m 12.722656,2.8339844 -9.7499997,6.5 A 0.50005,0.50005 0 0 0 2.75,9.75 v 10.5625 c 0,0.347905 0.1386182,0.681716 0.3847656,0.927734 C 3.3807735,21.486291 3.7145989,21.625 4.0625,21.625 h 17.875 c 0.347905,0 0.681714,-0.138583 0.927734,-0.384766 C 23.111417,20.994214 23.25,20.660405 23.25,20.3125 V 9.75 A 0.50005,0.50005 0 0 0 23.027344,9.3339844 l -9.75,-6.5 a 0.50005,0.50005 0 0 0 -0.554688,0 z M 13,3.8515625 22.25,10.017578 V 20.3125 c 0,0.0831 -0.03318,0.162124 -0.0918,0.220703 -0.05858,0.05862 -0.137608,0.0918 -0.220703,0.0918 H 4.0625 c -0.083079,0 -0.1619713,-0.03305 -0.2207031,-0.0918 C 3.7831846,20.474622 3.75,20.395595 3.75,20.3125 V 10.017578 Z"
     id="path2" />
  <path
     style="color:#000000;fill:#ffffff;stroke-linecap:round;stroke-linejoin:round;-inkscape-stroke:none"
     d="M 22.832031,9.2578125 A 0.5,0.5 0 0 0 22.458984,9.34375 L 14.613281,14.9375 H 11.386719 L 3.5410156,9.34375 A 0.5,0.5 0 0 0 2.84375,9.4589844 0.5,0.5 0 0 0 2.9589844,10.15625 l 7.9785156,5.6875 a 0.50005,0.50005 0 0 0 0.289063,0.09375 h 3.546875 A 0.50005,0.50005 0 0 0 15.0625,15.84375 l 7.978516,-5.6875 A 0.5,0.5 0 0 0 23.15625,9.4589844 0.5,0.5 0 0 0 22.832031,9.2578125 Z"
     id="path4" />
</svg>
