<?xml version="1.0" encoding="UTF-8" standalone="no"?>
<svg
   width="26"
   height="26"
   viewBox="0 0 26 26"
   fill="none"
   version="1.1"
   id="svg20"
   sodipodi:docname="link.svg"
   inkscape:version="1.2 (dc2aedaf03, 2022-05-15)"
   xmlns:inkscape="http://www.inkscape.org/namespaces/inkscape"
   xmlns:sodipodi="http://sodipodi.sourceforge.net/DTD/sodipodi-0.dtd"
   xmlns="http://www.w3.org/2000/svg"
   xmlns:svg="http://www.w3.org/2000/svg">
  <defs
     id="defs24" />
  <sodipodi:namedview
     id="namedview22"
     pagecolor="#ffffff"
     bordercolor="#000000"
     borderopacity="0.25"
     inkscape:showpageshadow="2"
     inkscape:pageopacity="0.0"
     inkscape:pagecheckerboard="0"
     inkscape:deskcolor="#d1d1d1"
     showgrid="false"
     inkscape:zoom="20.576923"
     inkscape:cx="12.975701"
     inkscape:cy="13.024299"
     inkscape:window-width="1366"
     inkscape:window-height="715"
     inkscape:window-x="-8"
     inkscape:window-y="22"
     inkscape:window-maximized="1"
     inkscape:current-layer="svg20" />
  <path
     style="color:#000000;fill:#ffffff;stroke-linecap:round;stroke-linejoin:round;-inkscape-stroke:none"
     d="M 17.597656,3.4335938 C 16.944983,3.4337494 16.298206,3.5625026 15.695313,3.8125 15.09234,4.0624953 14.543335,4.4288992 14.082031,4.890625 l -2.009765,2.0097656 a 0.5,0.5 0 0 0 0,0.7070313 0.5,0.5 0 0 0 0.707031,0 l 2.011719,-2.0097657 c 0.368495,-0.3688333 0.805483,-0.6616438 1.287109,-0.8613281 0.481505,-0.1996621 0.998205,-0.30261 1.519531,-0.3027344 0.521328,-1.154e-4 1.037801,0.1032747 1.519531,0.3027344 0.481633,0.199456 0.918448,0.4907218 1.28711,0.859375 0.368648,0.3686391 0.661844,0.8073517 0.861328,1.2890625 0.199465,0.4816634 0.30087,0.9962004 0.300781,1.5175782 -8.9e-5,0.5213198 -0.103005,1.0379604 -0.302734,1.5195312 -0.199632,0.481584 -0.492541,0.920542 -0.861328,1.289063 l -2.873047,2.871093 c -0.368413,0.368502 -0.805599,0.661832 -1.28711,0.861328 -0.481545,0.199475 -0.996334,0.302735 -1.517578,0.302735 -0.521132,0 -1.037985,-0.10326 -1.519531,-0.302735 -0.48151,-0.199496 -0.918697,-0.492826 -1.287109,-0.861328 a 0.5,0.5 0 0 0 -0.707031,0 0.5,0.5 0 0 0 0,0.707032 c 0.461386,0.461497 1.008639,0.828422 1.611328,1.078125 0.602853,0.249724 1.249877,0.378906 1.902343,0.378906 0.652555,0 1.297538,-0.129182 1.900391,-0.378906 0.602689,-0.249703 1.149942,-0.616628 1.611328,-1.078125 l 2.873047,-2.871094 C 21.570987,11.45669 21.937532,10.907702 22.1875,10.304688 22.43757,9.7017394 22.566295,9.0570158 22.566406,8.4042969 22.566517,7.7516358 22.439188,7.1050087 22.189453,6.5019531 21.939738,5.8989451 21.572879,5.3502119 21.111328,4.8886719 20.649791,4.427146 20.101013,4.0622036 19.498047,3.8125 18.894978,3.5628002 18.250328,3.4334492 17.597656,3.4335938 Z"
     id="path16" />
  <path
     style="color:#000000;fill:#ffffff;stroke-linecap:round;stroke-linejoin:round;-inkscape-stroke:none"
     d="m 11.277344,9.7558594 c -0.652466,0 -1.2995452,0.1273527 -1.902344,0.3769536 -0.6028274,0.249728 -1.1499608,0.616824 -1.6113281,1.078125 L 4.890625,14.082031 C 4.4288992,14.543335 4.0624953,15.09234 3.8125,15.695313 c -0.2499974,0.602893 -0.3787506,1.247717 -0.3789062,1.90039 -1.446e-4,0.652672 0.1292064,1.299275 0.3789062,1.902344 0.2497036,0.602966 0.614646,1.151744 1.0761719,1.613281 0.46154,0.461551 1.0102732,0.826457 1.6132812,1.076172 0.6030556,0.249735 1.2496827,0.379017 1.9023438,0.378906 0.6526627,-2.22e-4 1.2974826,-0.128964 1.9003911,-0.378906 0.603014,-0.249968 1.151985,-0.616385 1.613281,-1.078125 l 2.009765,-2.009766 a 0.5,0.5 0 0 0 0,-0.707031 0.5,0.5 0 0 0 -0.707031,0 l -2.009765,2.009766 C 10.842434,20.771203 10.403459,21.06404 9.921875,21.263672 9.4402641,21.463329 8.9237198,21.566229 8.4023438,21.566406 7.880966,21.566495 7.366429,21.463136 6.8847656,21.263672 6.4030548,21.064188 5.9643422,20.772945 5.5957031,20.404297 5.2270499,20.035635 4.9357841,19.596867 4.7363281,19.115234 4.5368684,18.633504 4.4334783,18.118984 4.4335937,17.597656 4.4337181,17.07633 4.536666,16.55963 4.7363281,16.078125 4.9360124,15.596499 5.2288229,15.159511 5.5976562,14.791016 a 0.50005,0.50005 0 0 0 0,-0.002 L 8.4707031,11.917969 C 8.839255,11.54947 9.276301,11.256112 9.7578125,11.056641 c 0.4815605,-0.1994 0.9983985,-0.300782 1.5195315,-0.300782 0.521244,0 1.035992,0.101379 1.517578,0.300782 0.481462,0.199476 0.918651,0.49287 1.287109,0.861328 a 0.5,0.5 0 0 0 0.707032,0 0.5,0.5 0 0 0 0,-0.707031 C 14.327721,10.749596 13.780471,10.382535 13.177734,10.132813 12.574921,9.8832153 11.929899,9.7558594 11.277344,9.7558594 Z"
     id="path18" />
</svg>
