<?xml version="1.0" encoding="UTF-8" standalone="no"?>
<svg
   width="26"
   height="26"
   viewBox="0 0 26 26"
   fill="none"
   version="1.1"
   id="svg770"
   sodipodi:docname="notebook.svg"
   inkscape:version="1.2 (dc2aedaf03, 2022-05-15)"
   xmlns:inkscape="http://www.inkscape.org/namespaces/inkscape"
   xmlns:sodipodi="http://sodipodi.sourceforge.net/DTD/sodipodi-0.dtd"
   xmlns="http://www.w3.org/2000/svg"
   xmlns:svg="http://www.w3.org/2000/svg">
  <defs
     id="defs774" />
  <sodipodi:namedview
     id="namedview772"
     pagecolor="#ffffff"
     bordercolor="#000000"
     borderopacity="0.25"
     inkscape:showpageshadow="2"
     inkscape:pageopacity="0.0"
     inkscape:pagecheckerboard="0"
     inkscape:deskcolor="#d1d1d1"
     showgrid="false"
     inkscape:zoom="20.346154"
     inkscape:cx="12.975425"
     inkscape:cy="12.975425"
     inkscape:window-width="1366"
     inkscape:window-height="709"
     inkscape:window-x="0"
     inkscape:window-y="30"
     inkscape:window-maximized="1"
     inkscape:current-layer="svg770" />
  <path
     style="color:#000000;fill:#1f2428;stroke-linecap:round;stroke-linejoin:round;-inkscape-stroke:none"
     d="m 11.375,10.875 a 0.5,0.5 0 0 0 -0.5,0.5 0.5,0.5 0 0 0 0.5,0.5 h 6.5 a 0.5,0.5 0 0 0 0.5,-0.5 0.5,0.5 0 0 0 -0.5,-0.5 z"
     id="path762" />
  <path
     style="color:#000000;fill:#1f2428;stroke-linecap:round;stroke-linejoin:round;-inkscape-stroke:none"
     d="m 11.375,14.125 a 0.5,0.5 0 0 0 -0.5,0.5 0.5,0.5 0 0 0 0.5,0.5 h 6.5 a 0.5,0.5 0 0 0 0.5,-0.5 0.5,0.5 0 0 0 -0.5,-0.5 z"
     id="path764" />
  <path
     style="color:#000000;fill:#1f2428;stroke-linecap:round;stroke-linejoin:round;-inkscape-stroke:none"
     d="m 4.875,3.5625 c -0.7189512,0 -1.3125,0.5935488 -1.3125,1.3125 v 16.25 c 0,0.718939 0.5935265,1.3125 1.3125,1.3125 h 16.25 c 0.718962,0 1.3125,-0.593538 1.3125,-1.3125 V 4.875 c 0,-0.7189735 -0.593561,-1.3125 -1.3125,-1.3125 z m 0,1 h 16.25 c 0.17846,0 0.3125,0.1340143 0.3125,0.3125 v 16.25 c 0,0.178438 -0.134062,0.3125 -0.3125,0.3125 H 4.875 c -0.1784857,0 -0.3125,-0.13404 -0.3125,-0.3125 V 4.875 c 0,-0.1785079 0.1339921,-0.3125 0.3125,-0.3125 z"
     id="path766" />
  <path
     style="color:#000000;fill:#1f2428;stroke-linecap:round;stroke-linejoin:round;-inkscape-stroke:none"
     d="m 8.125,3.5625 a 0.5,0.5 0 0 0 -0.5,0.5 v 17.875 a 0.5,0.5 0 0 0 0.5,0.5 0.5,0.5 0 0 0 0.5,-0.5 V 4.0625 a 0.5,0.5 0 0 0 -0.5,-0.5 z"
     id="path768" />
</svg>
