<?xml version="1.0" encoding="UTF-8" standalone="no"?>
<svg
   width="28"
   height="28"
   viewBox="0 0 28 28"
   fill="none"
   version="1.1"
   id="svg916"
   sodipodi:docname="user.svg"
   inkscape:version="1.2 (dc2aedaf03, 2022-05-15)"
   xmlns:inkscape="http://www.inkscape.org/namespaces/inkscape"
   xmlns:sodipodi="http://sodipodi.sourceforge.net/DTD/sodipodi-0.dtd"
   xmlns="http://www.w3.org/2000/svg"
   xmlns:svg="http://www.w3.org/2000/svg">
  <defs
     id="defs920" />
  <sodipodi:namedview
     id="namedview918"
     pagecolor="#ffffff"
     bordercolor="#000000"
     borderopacity="0.25"
     inkscape:showpageshadow="2"
     inkscape:pageopacity="0.0"
     inkscape:pagecheckerboard="0"
     inkscape:deskcolor="#d1d1d1"
     showgrid="false"
     inkscape:zoom="18.892857"
     inkscape:cx="13.973535"
     inkscape:cy="14.026465"
     inkscape:window-width="1366"
     inkscape:window-height="709"
     inkscape:window-x="0"
     inkscape:window-y="30"
     inkscape:window-maximized="1"
     inkscape:current-layer="svg916" />
  <path
     style="color:#000000;fill:#000000;stroke-linecap:round;stroke-linejoin:round;-inkscape-stroke:none"
     d="m 14,2.75 c -4.2713255,0 -7.75,3.4786847 -7.75,7.75 0,4.271324 3.4786758,7.75 7.75,7.75 4.271324,0 7.75,-3.478676 7.75,-7.75 0,-4.2713153 -3.478674,-7.75 -7.75,-7.75 z m 0,1.5 c 3.460667,0 6.25,2.789343 6.25,6.25 0,3.460668 -2.789332,6.25 -6.25,6.25 -3.460668,0 -6.25,-2.789332 -6.25,-6.25 0,-3.460657 2.789333,-6.25 6.25,-6.25 z"
     id="path935" />
  <path
     style="color:#000000;fill:#000000;stroke-linecap:round;stroke-linejoin:round;-inkscape-stroke:none"
     d="m 14,16.75 c -2.282072,0 -4.5235431,0.601526 -6.5,1.742187 -1.9764575,1.140762 -3.6181706,2.77982 -4.7597656,4.75586 A 0.75,0.75 0 0 0 3.0136719,24.273437 0.75,0.75 0 0 0 4.0390625,24 C 5.0490053,22.251843 6.5014212,20.800252 8.25,19.791016 9.9985594,18.781879 11.981076,18.25 14,18.25 c 2.018901,0 4.00145,0.531786 5.75,1.541016 1.748433,1.009123 3.20107,2.460843 4.210937,4.208984 A 0.75,0.75 0 0 0 24.986328,24.273437 0.75,0.75 0 0 0 25.259766,23.25 C 24.118236,21.273944 22.476363,19.632862 20.5,18.492187 18.523553,17.35142 16.282095,16.75 14,16.75 Z"
     id="path938" />
</svg>
