<?xml version="1.0" encoding="UTF-8" standalone="no"?>
<svg
   width="26"
   height="26"
   viewBox="0 0 26 26"
   fill="none"
   version="1.1"
   id="svg98"
   sodipodi:docname="barbell.svg"
   inkscape:version="1.2 (dc2aedaf03, 2022-05-15)"
   xmlns:inkscape="http://www.inkscape.org/namespaces/inkscape"
   xmlns:sodipodi="http://sodipodi.sourceforge.net/DTD/sodipodi-0.dtd"
   xmlns="http://www.w3.org/2000/svg"
   xmlns:svg="http://www.w3.org/2000/svg">
  <defs
     id="defs102" />
  <sodipodi:namedview
     id="namedview100"
     pagecolor="#ffffff"
     bordercolor="#000000"
     borderopacity="0.25"
     inkscape:showpageshadow="2"
     inkscape:pageopacity="0.0"
     inkscape:pagecheckerboard="0"
     inkscape:deskcolor="#d1d1d1"
     showgrid="false"
     inkscape:zoom="20.346154"
     inkscape:cx="12.975425"
     inkscape:cy="12.975425"
     inkscape:window-width="1366"
     inkscape:window-height="709"
     inkscape:window-x="0"
     inkscape:window-y="30"
     inkscape:window-maximized="1"
     inkscape:current-layer="svg98" />
  <path
     style="color:#000000;fill:#1f2428;stroke-linecap:round;stroke-linejoin:round;-inkscape-stroke:none"
     d="M 6.5,5.1875 C 5.7810488,5.1875 5.1875,5.7810488 5.1875,6.5 v 13 c 0,0.718939 0.5935265,1.3125 1.3125,1.3125 h 2.4375 c 0.7189735,0 1.3125,-0.593561 1.3125,-1.3125 V 6.5 C 10.25,5.7810488 9.6564512,5.1875 8.9375,5.1875 Z m 0,1 H 8.9375 C 9.1160079,6.1875 9.25,6.3214921 9.25,6.5 v 13 c 0,0.17846 -0.1340143,0.3125 -0.3125,0.3125 H 6.5 C 6.3215143,19.8125 6.1875,19.67846 6.1875,19.5 V 6.5 C 6.1875,6.3214921 6.3214921,6.1875 6.5,6.1875 Z"
     id="path315" />
  <path
     style="color:#000000;fill:#1f2428;stroke-linecap:round;stroke-linejoin:round;-inkscape-stroke:none"
     d="M 17.0625,5.1875 C 16.343561,5.1875 15.75,5.7810265 15.75,6.5 v 13 c 0,0.718962 0.593538,1.3125 1.3125,1.3125 H 19.5 c 0.718962,0 1.3125,-0.593538 1.3125,-1.3125 v -13 c 0,-0.7189735 -0.593561,-1.3125 -1.3125,-1.3125 z m 0,1 H 19.5 c 0.17846,0 0.3125,0.1340143 0.3125,0.3125 v 13 c 0,0.178438 -0.134062,0.3125 -0.3125,0.3125 H 17.0625 C 16.884062,19.8125 16.75,19.678438 16.75,19.5 v -13 c 0,-0.1784857 0.13404,-0.3125 0.3125,-0.3125 z"
     id="path318" />
  <path
     style="color:#000000;fill:#1f2428;stroke-linecap:round;stroke-linejoin:round;-inkscape-stroke:none"
     d="m 20.3125,7.625 a 0.5,0.5 0 0 0 -0.5,0.5 0.5,0.5 0 0 0 0.5,0.5 H 22.75 c 0.0831,0 0.162122,0.033185 0.220703,0.091797 0.05874,0.058732 0.0918,0.1376246 0.0918,0.2207031 v 8.125 c 0,0.0831 -0.03318,0.162124 -0.0918,0.220703 -0.05858,0.05862 -0.137608,0.0918 -0.220703,0.0918 h -2.4375 a 0.5,0.5 0 0 0 -0.5,0.5 0.5,0.5 0 0 0 0.5,0.5 H 22.75 c 0.347905,0 0.681714,-0.138583 0.927734,-0.384766 0.246183,-0.24602 0.384766,-0.579829 0.384766,-0.927734 v -8.125 c 0,-0.3479011 -0.138709,-0.6817265 -0.384766,-0.9277344 C 23.431716,7.7636182 23.097905,7.625 22.75,7.625 Z"
     id="path321" />
  <path
     style="color:#000000;fill:#1f2428;stroke-linecap:round;stroke-linejoin:round;-inkscape-stroke:none"
     d="M 3.25,7.625 C 2.9020989,7.625 2.5682709,7.7637442 2.3222656,8.0097656 2.0762442,8.2557709 1.9375,8.5895989 1.9375,8.9375 v 8.125 c 0,0.347905 0.1386182,0.681716 0.3847656,0.927734 C 2.5682735,18.236291 2.9020989,18.375 3.25,18.375 h 2.4375 a 0.5,0.5 0 0 0 0.5,-0.5 0.5,0.5 0 0 0 -0.5,-0.5 H 3.25 c -0.083079,0 -0.1619713,-0.03305 -0.2207031,-0.0918 C 2.9706846,17.224622 2.9375,17.145595 2.9375,17.0625 v -8.125 c 0,-0.083078 0.033059,-0.1619688 0.091797,-0.2207031 C 3.0880312,8.6580586 3.1669215,8.625 3.25,8.625 h 2.4375 a 0.5,0.5 0 0 0 0.5,-0.5 0.5,0.5 0 0 0 -0.5,-0.5 z"
     id="path324" />
  <path
     style="color:#000000;fill:#1f2428;stroke-linecap:round;stroke-linejoin:round;-inkscape-stroke:none"
     d="m 9.75,12.5 a 0.5,0.5 0 0 0 -0.5,0.5 0.5,0.5 0 0 0 0.5,0.5 h 6.5 a 0.5,0.5 0 0 0 0.5,-0.5 0.5,0.5 0 0 0 -0.5,-0.5 z"
     id="path327" />
  <path
     style="color:#000000;fill:#1f2428;stroke-linecap:round;stroke-linejoin:round;-inkscape-stroke:none"
     d="m 23.5625,12.5 a 0.5,0.5 0 0 0 -0.5,0.5 0.5,0.5 0 0 0 0.5,0.5 h 1.625 a 0.5,0.5 0 0 0 0.5,-0.5 0.5,0.5 0 0 0 -0.5,-0.5 z"
     id="path330" />
  <path
     style="color:#000000;fill:#1f2428;stroke-linecap:round;stroke-linejoin:round;-inkscape-stroke:none"
     d="m 0.8125,12.5 a 0.5,0.5 0 0 0 -0.5,0.5 0.5,0.5 0 0 0 0.5,0.5 h 1.625 a 0.5,0.5 0 0 0 0.5,-0.5 0.5,0.5 0 0 0 -0.5,-0.5 z"
     id="path333" />
</svg>
