<?xml version="1.0" encoding="UTF-8" standalone="no"?>
<svg
   width="26"
   height="26"
   viewBox="0 0 26 26"
   fill="none"
   version="1.1"
   id="svg445"
   sodipodi:docname="building.svg"
   inkscape:version="1.2 (dc2aedaf03, 2022-05-15)"
   xmlns:inkscape="http://www.inkscape.org/namespaces/inkscape"
   xmlns:sodipodi="http://sodipodi.sourceforge.net/DTD/sodipodi-0.dtd"
   xmlns="http://www.w3.org/2000/svg"
   xmlns:svg="http://www.w3.org/2000/svg">
  <defs
     id="defs449" />
  <sodipodi:namedview
     id="namedview447"
     pagecolor="#ffffff"
     bordercolor="#000000"
     borderopacity="0.25"
     inkscape:showpageshadow="2"
     inkscape:pageopacity="0.0"
     inkscape:pagecheckerboard="0"
     inkscape:deskcolor="#d1d1d1"
     showgrid="false"
     inkscape:zoom="20.346154"
     inkscape:cx="12.975425"
     inkscape:cy="12.975425"
     inkscape:window-width="1366"
     inkscape:window-height="709"
     inkscape:window-x="0"
     inkscape:window-y="30"
     inkscape:window-maximized="1"
     inkscape:current-layer="svg445" />
  <path
     style="color:#000000;fill:#1f2428;stroke-linecap:round;stroke-linejoin:round;-inkscape-stroke:none"
     d="m 1.625,21.435547 a 0.5,0.5 0 0 0 -0.5,0.5 0.5,0.5 0 0 0 0.5,0.5 h 22.75 a 0.5,0.5 0 0 0 0.5,-0.5 0.5,0.5 0 0 0 -0.5,-0.5 z"
     id="path500" />
  <path
     style="color:#000000;fill:#1f2428;stroke-linecap:round;stroke-linejoin:round;-inkscape-stroke:none"
     d="m 4.0625,2.7480469 c -0.3479011,0 -0.6817291,0.1387441 -0.9277344,0.3847656 C 2.8887442,3.3788178 2.75,3.7126458 2.75,4.0605469 V 21.935547 a 0.5,0.5 0 0 0 0.5,0.5 0.5,0.5 0 0 0 0.5,-0.5 V 4.0605469 c 0,-0.083079 0.033059,-0.1619688 0.091797,-0.2207031 0.058734,-0.058738 0.1376246,-0.091797 0.2207031,-0.091797 h 9.75 c 0.0831,0 0.16187,0.032971 0.220703,0.091797 0.05874,0.058732 0.0918,0.1376246 0.0918,0.2207031 V 21.935547 a 0.5,0.5 0 0 0 0.5,0.5 0.5,0.5 0 0 0 0.5,-0.5 V 4.0605469 C 15.125,3.7126458 14.986291,3.3788204 14.740234,3.1328125 14.494268,2.8868781 14.160405,2.7480469 13.8125,2.7480469 Z"
     id="path503" />
  <path
     style="color:#000000;fill:#1f2428;stroke-linecap:round;stroke-linejoin:round;-inkscape-stroke:none"
     d="m 14.625,9.2480469 a 0.5,0.5 0 0 0 -0.5,0.5 0.5,0.5 0 0 0 0.5,0.5000001 h 7.3125 c 0.0831,0 0.16187,0.03297 0.220703,0.0918 0.05866,0.05863 0.0918,0.137608 0.0918,0.220703 v 11.375 a 0.5,0.5 0 0 0 0.5,0.5 0.5,0.5 0 0 0 0.5,-0.5 v -11.375 C 23.25,10.212642 23.111376,9.878841 22.865234,9.6328125 22.619268,9.3868781 22.285405,9.2480469 21.9375,9.2480469 Z"
     id="path506" />
  <path
     style="color:#000000;fill:#1f2428;stroke-linecap:round;stroke-linejoin:round;-inkscape-stroke:none"
     d="m 6.5,6.8105469 a 0.5,0.5 0 0 0 -0.5,0.5 0.5,0.5 0 0 0 0.5,0.5 h 3.25 a 0.5,0.5 0 0 0 0.5,-0.5 0.5,0.5 0 0 0 -0.5,-0.5 z"
     id="path509" />
  <path
     style="color:#000000;fill:#1f2428;stroke-linecap:round;stroke-linejoin:round;-inkscape-stroke:none"
     d="m 8.125,13.310547 a 0.5,0.5 0 0 0 -0.5,0.5 0.5,0.5 0 0 0 0.5,0.5 h 3.25 a 0.5,0.5 0 0 0 0.5,-0.5 0.5,0.5 0 0 0 -0.5,-0.5 z"
     id="path512" />
  <path
     style="color:#000000;fill:#1f2428;stroke-linecap:round;stroke-linejoin:round;-inkscape-stroke:none"
     d="m 6.5,17.373047 a 0.5,0.5 0 0 0 -0.5,0.5 0.5,0.5 0 0 0 0.5,0.5 h 3.25 a 0.5,0.5 0 0 0 0.5,-0.5 0.5,0.5 0 0 0 -0.5,-0.5 z"
     id="path515" />
  <path
     style="color:#000000;fill:#1f2428;stroke-linecap:round;stroke-linejoin:round;-inkscape-stroke:none"
     d="m 17.875,17.373047 a 0.5,0.5 0 0 0 -0.5,0.5 0.5,0.5 0 0 0 0.5,0.5 H 19.5 a 0.5,0.5 0 0 0 0.5,-0.5 0.5,0.5 0 0 0 -0.5,-0.5 z"
     id="path518" />
  <path
     style="color:#000000;fill:#1f2428;stroke-linecap:round;stroke-linejoin:round;-inkscape-stroke:none"
     d="m 17.875,13.310547 a 0.5,0.5 0 0 0 -0.5,0.5 0.5,0.5 0 0 0 0.5,0.5 H 19.5 a 0.5,0.5 0 0 0 0.5,-0.5 0.5,0.5 0 0 0 -0.5,-0.5 z"
     id="path521" />
</svg>
