<?xml version="1.0" encoding="UTF-8" standalone="no"?>
<svg
   width="19"
   height="19"
   viewBox="0 0 19 19"
   fill="none"
   version="1.1"
   id="svg6"
   sodipodi:docname="clock.svg"
   inkscape:version="1.2 (dc2aedaf03, 2022-05-15)"
   xmlns:inkscape="http://www.inkscape.org/namespaces/inkscape"
   xmlns:sodipodi="http://sodipodi.sourceforge.net/DTD/sodipodi-0.dtd"
   xmlns="http://www.w3.org/2000/svg"
   xmlns:svg="http://www.w3.org/2000/svg">
  <defs
     id="defs10" />
  <sodipodi:namedview
     id="namedview8"
     pagecolor="#ffffff"
     bordercolor="#000000"
     borderopacity="0.25"
     inkscape:showpageshadow="2"
     inkscape:pageopacity="0.0"
     inkscape:pagecheckerboard="0"
     inkscape:deskcolor="#d1d1d1"
     showgrid="false"
     inkscape:zoom="28.157895"
     inkscape:cx="9.517757"
     inkscape:cy="9.517757"
     inkscape:window-width="1366"
     inkscape:window-height="715"
     inkscape:window-x="-8"
     inkscape:window-y="22"
     inkscape:window-maximized="1"
     inkscape:current-layer="svg6" />
  <path
     style="color:#000000;fill:#919191;stroke-miterlimit:10;-inkscape-stroke:none"
     d="m 9.4433594,1.8613281 c -4.1817856,0 -7.5820313,3.4002457 -7.5820313,7.5820313 0,4.1817576 3.4002415,7.5820316 7.5820313,7.5820316 4.1817716,0 7.5839846,-3.40027 7.5839846,-7.5820316 0,-4.1817898 -3.402218,-7.5820313 -7.5839846,-7.5820313 z m 0,1 c 3.6413256,0 6.5839846,2.9406889 6.5839846,6.5820313 0,3.6413106 -2.942664,6.5820316 -6.5839846,6.5820316 -3.6413424,0 -6.5820313,-2.940717 -6.5820313,-6.5820316 0,-3.6413467 2.9406846,-6.5820313 6.5820313,-6.5820313 z"
     id="path2" />
  <path
     style="color:#000000;fill:#919191;stroke-linecap:round;stroke-linejoin:round;-inkscape-stroke:none"
     d="m 9.4433594,4.8125 a 0.5,0.5 0 0 0 -0.5,0.5 v 4.1308594 a 0.50005,0.50005 0 0 0 0.5,0.5 h 4.1308596 a 0.5,0.5 0 0 0 0.5,-0.5 0.5,0.5 0 0 0 -0.5,-0.5 H 9.9433594 V 5.3125 a 0.5,0.5 0 0 0 -0.5,-0.5 z"
     id="path4" />
</svg>
