<?xml version="1.0" encoding="UTF-8" standalone="no"?>
<svg
   width="26"
   height="26"
   viewBox="0 0 26 26"
   fill="none"
   version="1.1"
   id="svg642"
   sodipodi:docname="globus.svg"
   inkscape:version="1.2 (dc2aedaf03, 2022-05-15)"
   xmlns:inkscape="http://www.inkscape.org/namespaces/inkscape"
   xmlns:sodipodi="http://sodipodi.sourceforge.net/DTD/sodipodi-0.dtd"
   xmlns="http://www.w3.org/2000/svg"
   xmlns:svg="http://www.w3.org/2000/svg">
  <defs
     id="defs646" />
  <sodipodi:namedview
     id="namedview644"
     pagecolor="#ffffff"
     bordercolor="#000000"
     borderopacity="0.25"
     inkscape:showpageshadow="2"
     inkscape:pageopacity="0.0"
     inkscape:pagecheckerboard="0"
     inkscape:deskcolor="#d1d1d1"
     showgrid="false"
     inkscape:zoom="20.346154"
     inkscape:cx="12.975425"
     inkscape:cy="12.975425"
     inkscape:window-width="1366"
     inkscape:window-height="709"
     inkscape:window-x="0"
     inkscape:window-y="30"
     inkscape:window-maximized="1"
     inkscape:current-layer="svg642" />
  <path
     style="color:#000000;fill:#1f2428;stroke-linecap:round;stroke-linejoin:round;-inkscape-stroke:none"
     d="M 13,2.75 C 7.345006,2.75 2.75,7.345006 2.75,13 2.75,18.655013 7.3450072,23.25 13,23.25 18.655012,23.25 23.25,18.655012 23.25,13 23.25,7.3450072 18.655013,2.75 13,2.75 Z m 0,1 c 5.114576,0 9.25,4.1354435 9.25,9.25 0,5.114577 -4.135423,9.25 -9.25,9.25 C 7.8854435,22.25 3.75,18.114576 3.75,13 3.75,7.8854448 7.8854448,3.75 13,3.75 Z"
     id="path634" />
  <path
     style="color:#000000;fill:#1f2428;stroke-linecap:round;stroke-linejoin:round;-inkscape-stroke:none"
     d="m 13.669922,12.992188 c -0.280839,-0.03777 -0.566692,0.01604 -0.814453,0.154296 -0.247565,0.138074 -0.445104,0.351987 -0.560547,0.611329 l -1.390625,3.121093 c -0.10457,0.234515 -0.137362,0.494867 -0.0957,0.748047 0.04181,0.253279 0.155788,0.489231 0.330078,0.677734 l 1.910156,2.066407 c 0.03337,0.03611 0.05698,0.07816 0.07031,0.125 0.0135,0.04747 0.01713,0.09828 0.0078,0.146484 l -0.390625,2.009766 a 0.5,0.5 0 0 0 0.396485,0.585937 0.5,0.5 0 0 0 0.585937,-0.396484 l 0.388672,-2.009766 c 0.03908,-0.202191 0.03091,-0.411444 -0.02539,-0.609375 -0.05647,-0.198357 -0.159203,-0.380164 -0.298828,-0.53125 l -1.910156,-2.064453 c -0.04151,-0.0449 -0.06813,-0.101588 -0.07813,-0.162109 -0.0099,-0.06042 -0.0014,-0.12205 0.02344,-0.177735 l 1.390625,-3.123046 c 0.02736,-0.06146 0.07378,-0.111606 0.132813,-0.144532 0.05904,-0.03294 0.128152,-0.04614 0.195312,-0.03711 l 2.316407,0.3125 c 0.04344,0.0059 0.08587,0.0201 0.123047,0.04297 l 5.511718,3.392578 a 0.5,0.5 0 0 0 0.689453,-0.164063 0.5,0.5 0 0 0 -0.164062,-0.689453 L 16.5,13.486328 c -0.156228,-0.09613 -0.330356,-0.157115 -0.511719,-0.18164 z"
     id="path636" />
  <path
     style="color:#000000;fill:#1f2428;stroke-linecap:round;stroke-linejoin:round;-inkscape-stroke:none"
     d="M 6.4082031,5.1835937 A 0.5,0.5 0 0 0 6.1367187,5.453125 L 5.2285156,7.6015625 C 5.097755,7.910793 5.0892305,8.2578558 5.2070312,8.5722656 L 6.375,11.6875 c 0.077195,0.205949 0.2045283,0.389445 0.3710937,0.533203 0.1666289,0.143827 0.3669843,0.242875 0.5820313,0.289063 l 2.1757813,0.46875 c 0.046717,0.01006 0.089768,0.02935 0.1269531,0.05859 0.037493,0.02945 0.069237,0.06678 0.089844,0.109375 l 0.3867189,0.798829 h -0.002 c 0.107436,0.22198 0.275392,0.410038 0.484375,0.541015 0.208971,0.131072 0.450738,0.199219 0.697265,0.199219 h 1.365235 a 0.5,0.5 0 0 0 0.5,-0.5 0.5,0.5 0 0 0 -0.5,-0.5 h -1.365235 c -0.05867,0 -0.116387,-0.01575 -0.166015,-0.04687 -0.04982,-0.03122 -0.08967,-0.07609 -0.115235,-0.128906 L 10.619141,12.710938 C 10.532148,12.531131 10.406767,12.375101 10.25,12.251953 10.092906,12.128399 9.9096664,12.041942 9.7148438,12 L 7.5371094,11.53125 c -0.051273,-0.01101 -0.097128,-0.03419 -0.1367188,-0.06836 -0.039674,-0.03424 -0.071458,-0.0779 -0.089844,-0.126953 L 6.1445312,8.2207031 c -0.028119,-0.07505 -0.027313,-0.1566396 0.00391,-0.2304687 L 7.0566406,5.8417969 A 0.5,0.5 0 0 0 6.7910156,5.1875 0.5,0.5 0 0 0 6.4082031,5.1835937 Z"
     id="path638" />
  <path
     style="color:#000000;fill:#1f2428;stroke-linecap:round;stroke-linejoin:round;-inkscape-stroke:none"
     d="m 15.621094,3.0878906 a 0.5,0.5 0 0 0 -0.38086,0.044922 0.5,0.5 0 0 0 -0.193359,0.6816406 l 0.949219,1.6972656 c 0.03456,0.061911 0.04664,0.1334312 0.03516,0.203125 -0.01152,0.069913 -0.04712,0.134151 -0.09961,0.1816407 l -2.732422,2.4707031 c -0.01781,0.016105 -0.03748,0.029365 -0.05859,0.041016 a 0.50005,0.50005 0 0 0 0,0.00195 l -1.244141,0.6855468 c -0.04605,0.025445 -0.09765,0.039063 -0.15039,0.039063 H 9.578125 c -0.2581996,0 -0.5114371,0.075936 -0.7265625,0.21875 C 8.6364809,9.4963166 8.4693822,9.6995434 8.3691406,9.9375 l -0.8457031,2.007813 a 0.5,0.5 0 0 0 0.265625,0.654296 0.5,0.5 0 0 0 0.65625,-0.265625 l 0.8457031,-2.007812 c 0.023878,-0.05668 0.063936,-0.104613 0.1152344,-0.138672 0.051254,-0.03403 0.110335,-0.05273 0.171875,-0.05273 h 2.167969 c 0.221859,0 0.440413,-0.05667 0.634765,-0.1640629 l 1.242188,-0.6855468 c 0.08849,-0.04883 0.171107,-0.1079865 0.246094,-0.1757813 L 16.603516,6.6367187 C 16.823623,6.4375887 16.969302,6.16982 17.017578,5.8769531 17.06589,5.5838473 17.01378,5.2825458 16.869141,5.0234375 L 15.919922,3.3261719 A 0.5,0.5 0 0 0 15.621094,3.0878906 Z"
     id="path640" />
</svg>
