<?xml version="1.0" encoding="UTF-8" standalone="no"?>
<svg
   width="32"
   height="32"
   viewBox="0 0 32 32"
   fill="none"
   version="1.1"
   id="svg6"
   sodipodi:docname="search.svg"
   inkscape:version="1.2 (dc2aedaf03, 2022-05-15)"
   xmlns:inkscape="http://www.inkscape.org/namespaces/inkscape"
   xmlns:sodipodi="http://sodipodi.sourceforge.net/DTD/sodipodi-0.dtd"
   xmlns="http://www.w3.org/2000/svg"
   xmlns:svg="http://www.w3.org/2000/svg">
  <defs
     id="defs10" />
  <sodipodi:namedview
     id="namedview8"
     pagecolor="#ffffff"
     bordercolor="#000000"
     borderopacity="0.25"
     inkscape:showpageshadow="2"
     inkscape:pageopacity="0.0"
     inkscape:pagecheckerboard="0"
     inkscape:deskcolor="#d1d1d1"
     showgrid="false"
     inkscape:zoom="16.71875"
     inkscape:cx="15.970093"
     inkscape:cy="15.970093"
     inkscape:window-width="1366"
     inkscape:window-height="715"
     inkscape:window-x="-8"
     inkscape:window-y="22"
     inkscape:window-maximized="1"
     inkscape:current-layer="svg6" />
  <path
     style="color:#000000;fill:#01cd7d;stroke-linecap:round;stroke-linejoin:round;-inkscape-stroke:none"
     d="M 14.5,3.25 C 8.2956861,3.25 3.25,8.2956861 3.25,14.5 c 0,6.204323 5.045687,11.25 11.25,11.25 6.204322,0 11.25,-5.045678 11.25,-11.25 C 25.75,8.295687 20.704323,3.25 14.5,3.25 Z m 0,1.5 c 5.393665,0 9.75,4.3563446 9.75,9.75 0,5.393666 -4.356334,9.75 -9.75,9.75 -5.3936554,0 -9.75,-4.356335 -9.75,-9.75 0,-5.3936545 4.3563455,-9.75 9.75,-9.75 z"
     id="path2" />
  <path
     style="color:#000000;fill:#01cd7d;stroke-linecap:round;stroke-linejoin:round;-inkscape-stroke:none"
     d="m 21.923828,21.175781 a 0.75,0.75 0 0 0 -0.53125,0.21875 0.75,0.75 0 0 0 0,1.060547 l 6.076172,6.076172 a 0.75,0.75 0 0 0 1.060547,0 0.75,0.75 0 0 0 0,-1.060547 l -6.074219,-6.076172 a 0.75,0.75 0 0 0 -0.53125,-0.21875 z"
     id="path4" />
</svg>
