<?xml version="1.0" encoding="UTF-8" standalone="no"?>
<svg
   width="26"
   height="26"
   viewBox="0 0 26 26"
   fill="none"
   version="1.1"
   id="svg847"
   sodipodi:docname="textdoc.svg"
   inkscape:version="1.2 (dc2aedaf03, 2022-05-15)"
   xmlns:inkscape="http://www.inkscape.org/namespaces/inkscape"
   xmlns:sodipodi="http://sodipodi.sourceforge.net/DTD/sodipodi-0.dtd"
   xmlns="http://www.w3.org/2000/svg"
   xmlns:svg="http://www.w3.org/2000/svg">
  <defs
     id="defs851" />
  <sodipodi:namedview
     id="namedview849"
     pagecolor="#ffffff"
     bordercolor="#000000"
     borderopacity="0.25"
     inkscape:showpageshadow="2"
     inkscape:pageopacity="0.0"
     inkscape:pagecheckerboard="0"
     inkscape:deskcolor="#d1d1d1"
     showgrid="false"
     inkscape:zoom="20.346154"
     inkscape:cx="12.975425"
     inkscape:cy="12.975425"
     inkscape:window-width="1366"
     inkscape:window-height="709"
     inkscape:window-x="0"
     inkscape:window-y="30"
     inkscape:window-maximized="1"
     inkscape:current-layer="svg847" />
  <path
     style="color:#000000;fill:#1f2428;stroke-linecap:round;stroke-linejoin:round;-inkscape-stroke:none"
     d="M 5.6875,2.75 C 5.3396176,2.7500161 5.0057671,2.888748 4.7597656,3.1347656 4.5137751,3.3807723 4.3749839,3.714588 4.375,4.0625 v 17.875 c -1.61e-5,0.34792 0.1388486,0.681769 0.3847656,0.927734 C 5.0057709,23.111304 5.3396028,23.25 5.6875,23.25 h 14.625 c 0.347905,0 0.681714,-0.138583 0.927734,-0.384766 C 21.486204,22.619265 21.625,22.285405 21.625,21.9375 v -13 A 0.50005,0.50005 0 0 0 21.478516,8.5839844 l -5.6875,-5.6875 A 0.50005,0.50005 0 0 0 15.4375,2.75 Z m 0,1 h 9.542969 L 20.625,9.1445313 V 21.9375 c 0,0.0831 -0.03297,0.161873 -0.0918,0.220703 -0.05858,0.05862 -0.137608,0.0918 -0.220703,0.0918 H 5.6875 c -0.083062,0 -0.1619887,-0.03307 -0.2207031,-0.0918 C 5.4079742,22.099369 5.3749961,22.02058 5.375,21.9375 V 4.0625 C 5.3749961,3.9794525 5.4080477,3.9005499 5.4667969,3.8417969 5.5255151,3.7830748 5.6044228,3.7500039 5.6875,3.75 Z"
     id="path839" />
  <path
     style="color:#000000;fill:#1f2428;stroke-linecap:round;stroke-linejoin:round;-inkscape-stroke:none"
     d="m 15.4375,2.75 a 0.5,0.5 0 0 0 -0.5,0.5 v 5.6875 a 0.50005,0.50005 0 0 0 0.5,0.5 h 5.6875 a 0.5,0.5 0 0 0 0.5,-0.5 0.5,0.5 0 0 0 -0.5,-0.5 H 15.9375 V 3.25 a 0.5,0.5 0 0 0 -0.5,-0.5 z"
     id="path841" />
  <path
     style="color:#000000;fill:#1f2428;stroke-linecap:round;stroke-linejoin:round;-inkscape-stroke:none"
     d="m 9.75,13.3125 a 0.5,0.5 0 0 0 -0.5,0.5 0.5,0.5 0 0 0 0.5,0.5 h 6.5 a 0.5,0.5 0 0 0 0.5,-0.5 0.5,0.5 0 0 0 -0.5,-0.5 z"
     id="path843" />
  <path
     style="color:#000000;fill:#1f2428;stroke-linecap:round;stroke-linejoin:round;-inkscape-stroke:none"
     d="m 9.75,16.5625 a 0.5,0.5 0 0 0 -0.5,0.5 0.5,0.5 0 0 0 0.5,0.5 h 6.5 a 0.5,0.5 0 0 0 0.5,-0.5 0.5,0.5 0 0 0 -0.5,-0.5 z"
     id="path845" />
</svg>
